# xmcd
# 
# Track frame offsets:
#     150
#     24368
#     41917
#     62635
#     84174
#     111771
#     124759
#     147966
#     172221
#     197475
#     222630
#     242822
# 
# Disc length: 3517
# 
# Revision: 1
# Processed by: cddbd v1.5.2PL0 Copyright (c) Steve Scherf et al.
# Submitted via: fre:ac v1.0.17
# 
DISCID=ad0dbb0c
DTITLE=Various Artist - A Taste of Blues (Telarc Blues)
DYEAR=2001
DGENRE=Blues
TTITLE0=Pinetop Perkins - Look On Yonder Wall
TTITLE1=Junior Wells - Why Are People Like That?
TTITLE2=John Primer - I Been Dogged Around
TTITLE3="Son" Seals - Bad Blood
TTITLE4=Hubert Sumlin and Pinetop Perkins - The Sky Is Crying
TTITLE5=Taj Mahal, Tony Braunagel, Reggie McBride - Crossroads (The Crossroads Blues)
TTITLE6=Maria Muldaur - Southland Of The Heart
TTITLE7=Steve James, Mark Rubin - Elder Greene Blues
TTITLE8=James Cotton - Something To Remember You By
TTITLE9=Kenny Neal - The Red Rooster
TTITLE10=Ronnie Earl - Rock Me Baby
TTITLE11=Terry Evans - Let's Have A Ball
EXTD=
EXTT0=Elmore James
EXTT1=Bobby Charles
EXTT2=John Primer
EXTT3=Andrew Vachss/Frank "Son" Seals
EXTT4=Elmore James, Clarence Lewis, Morgan Robinson
EXTT5=Robert Johnson
EXTT6=Bruce Cockburn
EXTT7=Charley Patton
EXTT8=Eddie Jones
EXTT9=Willie Dixon
EXTT10=Arthur Crudup
EXTT11=Bunn
PLAYORDER=
